<svg width="60" height="60" viewBox="0 0 60 60" fill="none" xmlns="http://www.w3.org/2000/svg">
<path d="M14.7305 18.75H20.625C22.6992 18.75 24.375 20.4258 24.375 22.5C24.375 24.5742 22.6992 26.25 20.625 26.25H5.625C3.55078 26.25 1.875 24.5742 1.875 22.5V7.5C1.875 5.42578 3.55078 3.75 5.625 3.75C7.69922 3.75 9.375 5.42578 9.375 7.5V13.5L11.4375 11.4375C21.6914 1.18359 38.3086 1.18359 48.5625 11.4375C58.8164 21.6914 58.8164 38.3086 48.5625 48.5625C38.3086 58.8164 21.6914 58.8164 11.4375 48.5625C9.97266 47.0977 9.97266 44.7187 11.4375 43.2539C12.9023 41.7891 15.2812 41.7891 16.7461 43.2539C24.0703 50.5781 35.9414 50.5781 43.2656 43.2539C50.5898 35.9297 50.5898 24.0586 43.2656 16.7344C35.9414 9.41016 24.0703 9.41016 16.7461 16.7344L14.7305 18.75Z" fill="white"/>
</svg>
