<svg width="310" height="294" viewBox="0 0 310 294" fill="none" xmlns="http://www.w3.org/2000/svg">
<g clip-path="url(#clip0_124_37)">
<path d="M204.801 118.545C204.512 118.546 204.236 118.652 204.032 118.842C203.828 119.032 203.713 119.29 203.712 119.558V189.074C203.713 189.343 203.828 189.6 204.032 189.79C204.236 189.98 204.512 190.087 204.801 190.087H308.911C309.2 190.087 309.477 189.98 309.681 189.79C309.885 189.6 310 189.343 310 189.074V119.558C310 119.29 309.885 119.032 309.681 118.842C309.477 118.652 309.2 118.546 308.911 118.545H204.801Z" fill="#E6E6E6"/>
<path d="M303.162 124.763V174.167C303.162 174.496 303.021 174.812 302.771 175.045C302.52 175.278 302.18 175.409 301.826 175.409H211.672C211.609 175.41 211.546 175.405 211.484 175.394C211.165 175.352 210.874 175.205 210.664 174.98C210.453 174.754 210.336 174.466 210.336 174.167V124.763C210.336 124.433 210.477 124.117 210.727 123.884C210.978 123.651 211.318 123.52 211.672 123.52H301.826C302.18 123.52 302.52 123.651 302.771 123.884C303.021 124.117 303.162 124.433 303.162 124.763Z" fill="white"/>
<path d="M284.476 146.129C287.151 146.129 289.319 144.111 289.319 141.623C289.319 139.135 287.151 137.118 284.476 137.118C281.801 137.118 279.633 139.135 279.633 141.623C279.633 144.111 281.801 146.129 284.476 146.129Z" fill="#FF6584"/>
<path d="M206.824 122.529C207.705 122.529 208.42 121.864 208.42 121.043C208.42 120.223 207.705 119.558 206.824 119.558C205.942 119.558 205.227 120.223 205.227 121.043C205.227 121.864 205.942 122.529 206.824 122.529Z" fill="#3F3D56"/>
<path d="M306.676 122.529C307.558 122.529 308.273 121.864 308.273 121.043C308.273 120.223 307.558 119.558 306.676 119.558C305.794 119.558 305.079 120.223 305.079 121.043C305.079 121.864 305.794 122.529 306.676 122.529Z" fill="#3F3D56"/>
<path d="M206.824 189.074C207.705 189.074 208.42 188.409 208.42 187.589C208.42 186.769 207.705 186.104 206.824 186.104C205.942 186.104 205.227 186.769 205.227 187.589C205.227 188.409 205.942 189.074 206.824 189.074Z" fill="#3F3D56"/>
<path d="M306.676 189.074C307.558 189.074 308.273 188.409 308.273 187.589C308.273 186.769 307.558 186.104 306.676 186.104C305.794 186.104 305.079 186.769 305.079 187.589C305.079 188.409 305.794 189.074 306.676 189.074Z" fill="#3F3D56"/>
<path d="M240.039 159.31C243.248 159.31 245.85 156.89 245.85 153.904C245.85 150.919 243.248 148.499 240.039 148.499C236.83 148.499 234.228 150.919 234.228 153.904C234.228 156.89 236.83 159.31 240.039 159.31Z" fill="#FF704E"/>
<path d="M240.599 170.186H239.409L239.952 153.09L240.599 170.186Z" fill="#3F3D56"/>
<path d="M240.057 156.33L241.335 154.686L240.039 156.737L239.899 156.509L240.057 156.33Z" fill="#3F3D56"/>
<path d="M239.917 157.991L238.639 156.347L239.934 158.398L240.074 158.17L239.917 157.991Z" fill="#3F3D56"/>
<path d="M293.343 159.31C296.553 159.31 299.154 156.89 299.154 153.904C299.154 150.919 296.553 148.499 293.343 148.499C290.134 148.499 287.532 150.919 287.532 153.904C287.532 156.89 290.134 159.31 293.343 159.31Z" fill="#FF704E"/>
<path d="M293.903 170.186H292.713L293.256 153.09L293.903 170.186Z" fill="#3F3D56"/>
<path d="M293.361 156.33L294.638 154.686L293.344 156.737L293.203 156.509L293.361 156.33Z" fill="#3F3D56"/>
<path d="M293.221 157.991L291.943 156.347L293.238 158.398L293.378 158.17L293.221 157.991Z" fill="#3F3D56"/>
<path d="M256.872 157.172C261.612 157.172 265.454 153.598 265.454 149.189C265.454 144.78 261.612 141.205 256.872 141.205C252.132 141.205 248.29 144.78 248.29 149.189C248.29 153.598 252.132 157.172 256.872 157.172Z" fill="#FF704E"/>
<path d="M257.699 173.235H255.942L256.743 147.986L257.699 173.235Z" fill="#3F3D56"/>
<path d="M256.898 152.772L258.785 150.343L256.872 153.373L256.666 153.036L256.898 152.772Z" fill="#3F3D56"/>
<path d="M256.691 155.225L254.804 152.796L256.717 155.826L256.924 155.489L256.691 155.225Z" fill="#3F3D56"/>
<path d="M277.802 154.123C282.541 154.123 286.384 150.548 286.384 146.139C286.384 141.73 282.541 138.156 277.802 138.156C273.062 138.156 269.219 141.73 269.219 146.139C269.219 150.548 273.062 154.123 277.802 154.123Z" fill="#FF704E"/>
<path d="M278.629 170.186H276.871L277.672 144.937L278.629 170.186Z" fill="#3F3D56"/>
<path d="M277.828 149.722L279.714 147.293L277.801 150.323L277.595 149.987L277.828 149.722Z" fill="#3F3D56"/>
<path d="M277.621 152.175L275.734 149.746L277.646 152.776L277.853 152.44L277.621 152.175Z" fill="#3F3D56"/>
<path d="M223.516 154.123C228.256 154.123 232.099 150.548 232.099 146.139C232.099 141.73 228.256 138.156 223.516 138.156C218.777 138.156 214.934 141.73 214.934 146.139C214.934 150.548 218.777 154.123 223.516 154.123Z" fill="#FF704E"/>
<path d="M224.344 170.186H222.586L223.387 144.937L224.344 170.186Z" fill="#3F3D56"/>
<path d="M223.542 149.722L225.429 147.293L223.516 150.323L223.309 149.987L223.542 149.722Z" fill="#3F3D56"/>
<path d="M223.336 152.175L221.449 149.746L223.361 152.776L223.568 152.44L223.336 152.175Z" fill="#3F3D56"/>
<path d="M257.351 175.409H211.672C211.609 175.41 211.546 175.405 211.484 175.394C211.165 175.352 210.874 175.205 210.664 174.98C210.453 174.754 210.336 174.465 210.336 174.167V163.558C214.634 162.892 218.985 162.563 223.343 162.574C239.558 162.574 253.122 166.897 256.524 172.684C257.037 173.515 257.321 174.451 257.351 175.409Z" fill="#3F3D56"/>
<path d="M303.162 171.761V174.167C303.162 174.496 303.021 174.812 302.771 175.045C302.52 175.278 302.18 175.409 301.826 175.409H251.286C252.912 174.314 254.67 173.399 256.524 172.684C262.716 170.214 271.448 168.674 281.123 168.674C289.532 168.674 297.224 169.832 303.162 171.761Z" fill="#3F3D56"/>
<path d="M262.727 0C262.549 0.000228769 262.374 0.0411383 262.217 0.119126L170.301 45.6008C170.046 45.7273 169.856 45.9425 169.772 46.1992C169.688 46.456 169.716 46.7333 169.852 46.9704L204.946 108.344C205.082 108.581 205.313 108.758 205.589 108.837C205.865 108.915 206.163 108.889 206.419 108.763L298.334 63.281C298.589 63.1546 298.779 62.9395 298.863 62.6827C298.948 62.426 298.919 62.1486 298.784 61.9114L263.689 0.537739C263.622 0.42006 263.531 0.315884 263.421 0.231246C263.31 0.146607 263.183 0.0831899 263.046 0.0446693C262.943 0.0151615 262.835 0.000107724 262.727 0Z" fill="#E6E6E6"/>
<path d="M260.281 8.1196L285.221 51.7351C285.303 51.8793 285.355 52.0372 285.371 52.1998C285.388 52.3624 285.371 52.5265 285.319 52.6827C285.268 52.839 285.184 52.9842 285.072 53.1103C284.961 53.2363 284.823 53.3407 284.668 53.4173L205.076 92.8014C205.019 92.8298 204.96 92.8537 204.9 92.8728C204.597 92.9741 204.266 92.9707 203.966 92.8632C203.666 92.7557 203.418 92.5512 203.267 92.2874L178.327 48.6718C178.245 48.5276 178.193 48.3697 178.177 48.2071C178.16 48.0445 178.177 47.8805 178.229 47.7242C178.28 47.568 178.364 47.4227 178.476 47.2967C178.587 47.1706 178.725 47.0663 178.88 46.9896L258.472 7.60563C258.627 7.52887 258.797 7.48127 258.972 7.46556C259.147 7.44985 259.323 7.46633 259.491 7.51406C259.659 7.56179 259.815 7.63984 259.951 7.74374C260.086 7.84764 260.198 7.97536 260.281 8.1196Z" fill="white"/>
<path d="M207.083 64.8572C213.561 64.8572 218.813 59.9718 218.813 53.9455C218.813 47.9191 213.561 43.0338 207.083 43.0338C200.604 43.0338 195.353 47.9191 195.353 53.9455C195.353 59.9718 200.604 64.8572 207.083 64.8572Z" fill="#FF6584"/>
<path d="M256.534 67.5632L205.73 92.7019C205.667 92.7341 205.601 92.7609 205.532 92.7818L207.422 42.1762C207.43 41.8625 207.528 41.5566 207.706 41.2898C207.883 41.0229 208.134 40.8047 208.432 40.6573C208.729 40.5099 209.064 40.4388 209.401 40.451C209.738 40.4633 210.065 40.5586 210.35 40.7271L241.332 58.7294L242.816 59.5903L256.534 67.5632Z" fill="#3F3D56"/>
<path opacity="0.2" d="M256.534 67.5633L239.188 76.1461L241.124 60.4276L241.263 59.2954L241.332 58.7293L242.816 59.5904L256.534 67.5633Z" fill="black"/>
<path d="M284.821 53.5662L240.88 75.309L242.816 59.5903L242.955 58.4583L245.477 37.9742C245.642 36.6316 247.357 35.7045 248.703 36.1398C248.794 36.1699 248.883 36.2054 248.969 36.2461L284.821 53.5662Z" fill="#3F3D56"/>
<path d="M173.348 48.4081C174.23 48.4081 174.945 47.7431 174.945 46.9227C174.945 46.1024 174.23 45.4373 173.348 45.4373C172.466 45.4373 171.751 46.1024 171.751 46.9227C171.751 47.7431 172.466 48.4081 173.348 48.4081Z" fill="#3F3D56"/>
<path d="M261.505 4.78658C262.386 4.78658 263.101 4.12155 263.101 3.30119C263.101 2.48083 262.386 1.8158 261.505 1.8158C260.623 1.8158 259.908 2.48083 259.908 3.30119C259.908 4.12155 260.623 4.78658 261.505 4.78658Z" fill="#3F3D56"/>
<path d="M206.943 107.159C207.825 107.159 208.54 106.494 208.54 105.674C208.54 104.853 207.825 104.188 206.943 104.188C206.061 104.188 205.346 104.853 205.346 105.674C205.346 106.494 206.061 107.159 206.943 107.159Z" fill="#3F3D56"/>
<path d="M295.099 63.5375C295.981 63.5375 296.696 62.8725 296.696 62.0521C296.696 61.2317 295.981 60.5667 295.099 60.5667C294.217 60.5667 293.503 61.2317 293.503 62.0521C293.503 62.8725 294.217 63.5375 295.099 63.5375Z" fill="#3F3D56"/>
<path d="M284.983 293.966C285.262 294.034 285.559 293.997 285.808 293.863C286.058 293.728 286.24 293.507 286.315 293.247L305.526 226.067C305.6 225.808 305.56 225.531 305.416 225.299C305.271 225.067 305.033 224.898 304.754 224.828L204.142 199.931C203.863 199.862 203.566 199.899 203.316 200.034C203.066 200.169 202.884 200.39 202.81 200.65L183.599 267.83C183.562 267.958 183.553 268.092 183.572 268.224C183.591 268.356 183.638 268.483 183.709 268.598C183.781 268.713 183.876 268.814 183.99 268.895C184.104 268.975 184.233 269.034 184.371 269.069L284.983 293.966Z" fill="#E6E6E6"/>
<path d="M297.479 229.462L283.826 277.205C283.735 277.524 283.512 277.796 283.205 277.961C282.899 278.126 282.534 278.172 282.192 278.087L195.068 256.527C195.006 256.513 194.947 256.493 194.89 256.468C194.594 256.351 194.353 256.139 194.212 255.871C194.07 255.603 194.038 255.296 194.12 255.007L207.773 207.263C207.864 206.945 208.088 206.673 208.394 206.508C208.701 206.343 209.065 206.297 209.408 206.382L296.532 227.942C296.874 228.026 297.166 228.234 297.344 228.519C297.521 228.804 297.57 229.143 297.479 229.462Z" fill="white"/>
<path d="M285.766 270.423L283.826 277.206C283.735 277.524 283.512 277.796 283.205 277.961C282.899 278.126 282.534 278.172 282.192 278.087L195.068 256.527C195.006 256.513 194.947 256.493 194.89 256.468C194.594 256.351 194.353 256.139 194.212 255.871C194.07 255.603 194.038 255.296 194.12 255.007L196.06 248.225L285.766 270.423Z" fill="#3F3D56"/>
<path d="M247.27 265.237L233.41 261.807L232.988 263.28L246.849 266.71L247.27 265.237Z" fill="#CCCCCC"/>
<path d="M215.391 257.348L201.53 253.918L201.109 255.391L214.969 258.821L215.391 257.348Z" fill="#CCCCCC"/>
<path d="M279.15 273.125L265.289 269.695L264.868 271.169L278.728 274.599L279.15 273.125Z" fill="#CCCCCC"/>
<path d="M205.406 204.314C206.288 204.314 207.003 203.649 207.003 202.829C207.003 202.009 206.288 201.344 205.406 201.344C204.524 201.344 203.81 202.009 203.81 202.829C203.81 203.649 204.524 204.314 205.406 204.314Z" fill="#3F3D56"/>
<path d="M301.903 228.193C302.785 228.193 303.5 227.528 303.5 226.708C303.5 225.888 302.785 225.223 301.903 225.223C301.021 225.223 300.306 225.888 300.306 226.708C300.306 227.528 301.021 228.193 301.903 228.193Z" fill="#3F3D56"/>
<path d="M187.016 268.624C187.898 268.624 188.613 267.958 188.613 267.138C188.613 266.318 187.898 265.653 187.016 265.653C186.134 265.653 185.419 266.318 185.419 267.138C185.419 267.958 186.134 268.624 187.016 268.624Z" fill="#3F3D56"/>
<path d="M283.513 292.502C284.395 292.502 285.11 291.837 285.11 291.017C285.11 290.197 284.395 289.532 283.513 289.532C282.631 289.532 281.916 290.197 281.916 291.017C281.916 291.837 282.631 292.502 283.513 292.502Z" fill="#3F3D56"/>
<path d="M264.341 267.33L272.043 269.24L272.369 268.102L264.667 266.192L264.341 267.33Z" fill="#3F3D56"/>
<path d="M208.894 252.664L210.385 253.4L270.783 268.378L271.663 267.335C273.188 265.55 274.149 263.406 274.439 261.142C274.644 259.451 274.454 257.674 273.174 256.606L275.243 239.334L241.839 231.009L226.135 237.51C226.135 237.51 220.065 235.899 215.654 238.917C214.051 240.048 212.851 241.602 212.21 243.376L211.509 245.34L208.894 252.664Z" fill="#FF704E"/>
<path d="M222.241 262.85C226.504 262.85 229.959 259.635 229.959 255.67C229.959 251.704 226.504 248.49 222.241 248.49C217.978 248.49 214.522 251.704 214.522 255.67C214.522 259.635 217.978 262.85 222.241 262.85Z" fill="#3F3D56"/>
<path d="M222.241 259.449C224.484 259.449 226.303 257.757 226.303 255.67C226.303 253.583 224.484 251.891 222.241 251.891C219.997 251.891 218.178 253.583 218.178 255.67C218.178 257.757 219.997 259.449 222.241 259.449Z" fill="#CCCCCC"/>
<path d="M259.042 271.976C263.304 271.976 266.76 268.761 266.76 264.796C266.76 260.831 263.304 257.616 259.042 257.616C254.779 257.616 251.323 260.831 251.323 264.796C251.323 268.761 254.779 271.976 259.042 271.976Z" fill="#3F3D56"/>
<path d="M259.042 268.575C261.285 268.575 263.104 266.883 263.104 264.796C263.104 262.709 261.285 261.017 259.042 261.017C256.798 261.017 254.979 262.709 254.979 264.796C254.979 266.883 256.798 268.575 259.042 268.575Z" fill="#CCCCCC"/>
<path d="M231.597 237.648L249.638 242.12L251.841 242.665L255.559 243.588L255.632 243.335L256.504 240.294L257.483 236.879L255.01 236.267L252.807 235.719L248.907 234.751L246.704 234.206L242.2 233.089L231.597 237.648Z" fill="white"/>
<path d="M258.494 244.317L268.029 246.681L268.53 244.941L269.399 241.9L269.953 239.973L268.557 239.627L266.355 239.08L260.416 237.607L258.494 244.317Z" fill="white"/>
<path d="M252.284 250.453L253.507 250.756L254.126 248.595L252.904 248.292L252.284 250.453Z" fill="#3F3D56"/>
<path d="M235.607 241.93L235.933 240.793L233.61 240.217L233.284 241.354L235.607 241.93Z" fill="#3F3D56"/>
<path d="M234.933 241.081L234.799 241.048C234.121 240.88 233.543 240.468 233.192 239.903C232.84 239.339 232.744 238.667 232.925 238.037C233.106 237.406 233.548 236.869 234.155 236.542C234.762 236.215 235.484 236.126 236.161 236.294L236.296 236.327L234.933 241.081Z" fill="#3F3D56"/>
<path d="M211.509 245.34C212.407 245.662 213.398 245.68 214.309 245.389C215.219 245.098 215.99 244.517 216.485 243.75C216.98 242.982 217.169 242.076 217.017 241.192C216.865 240.308 216.382 239.502 215.654 238.917C214.051 240.048 212.851 241.602 212.21 243.376L211.509 245.34Z" fill="#3F3D56"/>
<path d="M252.807 235.719L255.632 243.335L256.504 240.294L255.01 236.267L252.807 235.719Z" fill="#F2F2F2"/>
<path d="M266.355 239.08L268.53 244.941L269.399 241.9L268.557 239.627L266.355 239.08Z" fill="#F2F2F2"/>
<path d="M246.704 234.206L249.638 242.12L251.841 242.665L248.907 234.751L246.704 234.206Z" fill="#F2F2F2"/>
<path d="M16.3985 118.292C19.1143 118.292 21.316 116.244 21.316 113.718C21.316 111.192 19.1143 109.144 16.3985 109.144C13.6826 109.144 11.481 111.192 11.481 113.718C11.481 116.244 13.6826 118.292 16.3985 118.292Z" fill="#FF704E"/>
<path opacity="0.2" d="M18.4741 109.575C19.3461 110.31 19.9056 111.311 20.051 112.397C20.1964 113.483 19.9179 114.581 19.2663 115.492C18.6147 116.403 17.6332 117.066 16.5003 117.361C15.3674 117.656 14.1585 117.563 13.0934 117.098C13.6168 117.542 14.237 117.875 14.9117 118.075C15.5864 118.275 16.2995 118.337 17.0023 118.256C17.7051 118.176 18.3809 117.955 18.9834 117.609C19.586 117.263 20.101 116.8 20.4932 116.252C20.8855 115.703 21.1457 115.083 21.256 114.432C21.3663 113.781 21.3241 113.116 21.1324 112.482C20.9406 111.848 20.6038 111.26 20.145 110.758C19.6862 110.257 19.1162 109.853 18.4741 109.575Z" fill="black"/>
<path d="M142.819 123.248C149.495 123.248 154.908 121.2 154.908 118.674C154.908 116.147 149.495 114.099 142.819 114.099C136.142 114.099 130.73 116.147 130.73 118.674C130.73 121.2 136.142 123.248 142.819 123.248Z" fill="#3F3D56"/>
<path opacity="0.2" d="M142.819 114.099C142.404 114.099 141.994 114.107 141.59 114.123C147.689 114.356 152.449 116.304 152.449 118.674C152.449 121.043 147.689 122.992 141.59 123.225C141.994 123.24 142.404 123.248 142.819 123.248C149.495 123.248 154.908 121.2 154.908 118.674C154.908 116.147 149.495 114.099 142.819 114.099Z" fill="black"/>
<path d="M158.596 118.674H97.9469V112.574C97.9469 112.271 97.8173 111.98 97.5868 111.766C97.3562 111.551 97.0435 111.431 96.7175 111.431H63.1146C62.7886 111.431 62.4759 111.551 62.2453 111.766C62.0148 111.98 61.8853 112.271 61.8853 112.574V118.674H26.6432V114.862C26.6432 114.558 26.5137 114.267 26.2832 114.053C26.0526 113.838 25.7399 113.718 25.4139 113.718H7.38307C7.05702 113.718 6.74433 113.838 6.51378 114.053C6.28323 114.267 6.1537 114.558 6.1537 114.862V118.674H1.23621C1.07471 118.673 0.914748 118.703 0.765497 118.76C0.616245 118.818 0.480637 118.902 0.366436 119.008C0.252235 119.114 0.161686 119.241 0.0999804 119.379C0.0382751 119.518 0.00662126 119.667 0.00683703 119.817V194.914C0.00662126 195.064 0.0382751 195.213 0.0999804 195.352C0.161686 195.491 0.252235 195.617 0.366436 195.723C0.480637 195.83 0.616245 195.914 0.765497 195.971C0.914748 196.029 1.07471 196.058 1.23621 196.058H158.596C158.757 196.058 158.917 196.029 159.067 195.971C159.216 195.914 159.352 195.83 159.466 195.723C159.58 195.617 159.67 195.491 159.732 195.352C159.794 195.213 159.826 195.064 159.825 194.914V119.817C159.826 119.667 159.794 119.518 159.732 119.379C159.67 119.241 159.58 119.114 159.466 119.008C159.352 118.902 159.216 118.818 159.067 118.76C158.917 118.703 158.757 118.673 158.596 118.674Z" fill="#3F3D56"/>
<path opacity="0.2" d="M158.589 190.457H1.22937C1.06787 190.458 0.907912 190.428 0.758661 190.371C0.609409 190.313 0.473794 190.229 0.359594 190.123C0.245393 190.017 0.15485 189.89 0.0931445 189.752C0.0314392 189.613 -0.000214675 189.464 1.09571e-06 189.314V194.651C-0.000214675 194.801 0.0314392 194.95 0.0931445 195.088C0.15485 195.227 0.245393 195.353 0.359594 195.46C0.473794 195.566 0.609409 195.65 0.758661 195.707C0.907912 195.765 1.06787 195.794 1.22937 195.794H158.589C158.751 195.794 158.911 195.765 159.06 195.707C159.209 195.65 159.345 195.566 159.459 195.46C159.573 195.353 159.664 195.227 159.725 195.088C159.787 194.95 159.819 194.801 159.818 194.651V189.314C159.819 189.464 159.787 189.613 159.725 189.752C159.664 189.89 159.573 190.017 159.459 190.123C159.345 190.229 159.209 190.313 159.06 190.371C158.911 190.428 158.751 190.458 158.589 190.457Z" fill="black"/>
<path opacity="0.2" d="M159.825 153.744H0.00680542V168.23H159.825V153.744Z" fill="black"/>
<path opacity="0.2" d="M159.825 146.501H0.00680542V160.987H159.825V146.501Z" fill="black"/>
<path d="M159.825 149.932H0.00680542V164.418H159.825V149.932Z" fill="#FF704E"/>
<path d="M79.916 186.147C97.1165 186.147 111.06 173.176 111.06 157.175C111.06 141.175 97.1165 128.204 79.916 128.204C62.7156 128.204 48.7719 141.175 48.7719 157.175C48.7719 173.176 62.7156 186.147 79.916 186.147Z" fill="#FF704E"/>
<path opacity="0.2" d="M103.905 138.7C107.867 144.98 109.142 152.416 107.477 159.53C105.811 166.644 101.327 172.914 94.9165 177.091C88.5063 181.269 80.6401 183.048 72.8836 182.074C65.1272 181.101 58.0491 177.446 53.0582 171.838C55.2348 175.288 58.1561 178.282 61.6378 180.63C65.1196 182.978 69.0865 184.63 73.2886 185.482C77.4906 186.333 81.8367 186.366 86.053 185.578C90.2693 184.79 94.2644 183.198 97.7866 180.902C101.309 178.607 104.282 175.658 106.518 172.241C108.755 168.823 110.206 165.013 110.781 161.048C111.356 157.083 111.041 153.051 109.858 149.205C108.675 145.358 106.648 141.782 103.905 138.7Z" fill="black"/>
<path d="M79.9161 178.735C92.7164 178.735 103.093 169.082 103.093 157.175C103.093 145.268 92.7164 135.615 79.9161 135.615C67.1157 135.615 56.739 145.268 56.739 157.175C56.739 169.082 67.1157 178.735 79.9161 178.735Z" fill="#3F3D56"/>
<path d="M97.9468 157.175C97.9505 159.452 97.4526 161.706 96.4839 163.797C95.965 164.924 95.3121 165.995 94.5374 166.987C93.01 168.958 91.0406 170.597 88.7652 171.791C86.4898 172.984 83.9629 173.703 81.3594 173.898C78.7558 174.093 76.1377 173.76 73.6863 172.921C71.2349 172.082 69.0086 170.758 67.1616 169.04C65.3147 167.322 63.891 165.251 62.9893 162.97C62.0875 160.69 61.7292 158.254 61.939 155.833C62.1489 153.411 62.9219 151.06 64.2046 148.943C65.4873 146.827 67.2491 144.995 69.368 143.574C70.4352 142.853 71.5856 142.246 72.798 141.763C75.5409 140.667 78.5333 140.222 81.5068 140.467C84.4802 140.713 87.3417 141.641 89.8345 143.168C92.3274 144.696 94.3735 146.776 95.7894 149.22C97.2052 151.665 97.9466 154.398 97.9468 157.175Z" fill="white"/>
<path opacity="0.2" d="M97.7543 154.732C97.082 150.467 94.6679 146.608 91.0142 143.957C92.5975 146.263 93.5502 148.894 93.7893 151.622C94.0284 154.349 93.5466 157.089 92.386 159.603C91.8672 160.731 91.2143 161.801 90.4395 162.794C89.0208 164.625 87.2194 166.17 85.1431 167.338C83.0668 168.505 80.7584 169.271 78.3565 169.588C75.9545 169.906 73.5083 169.769 71.1646 169.185C68.8209 168.602 66.6279 167.585 64.7172 166.194C66.2986 168.503 68.4637 170.416 71.0234 171.767C73.5831 173.118 76.4595 173.865 79.4012 173.944C82.343 174.022 85.2606 173.429 87.8991 172.216C90.5377 171.004 92.8168 169.208 94.5374 166.987C95.3122 165.995 95.9651 164.924 96.4839 163.797C97.8011 160.943 98.2409 157.804 97.7543 154.732V154.732Z" fill="black"/>
</g>
<defs>
<clipPath id="clip0_124_37">
<rect width="310" height="294" fill="white"/>
</clipPath>
</defs>
</svg>
